<svg width="77" height="75" viewBox="0 0 77 75" fill="none" xmlns="http://www.w3.org/2000/svg">
<path d="M63.968 22.5932L44.9912 37.6155L29.4466 42.6336L9.54157 24.0647L63.968 22.5932Z" fill="#73E6D3"/>
<path d="M24.162 43.6985L25.8871 46.7029L13.8355 53.6991L12.1104 50.6947L24.162 43.6985Z" fill="#F3F5F9"/>
<path d="M20.7117 37.6897L22.4368 40.6941L13.4729 45.8979L11.7478 42.8935L20.7117 37.6897Z" fill="#F3F5F9"/>
<path d="M27.612 49.7078L29.3371 52.7122L20.3732 57.916L18.6481 54.9115L27.612 49.7078Z" fill="#E1E6F0"/>
<path d="M63.9678 22.594L29.4464 42.6344L35.4873 69.2519L63.9678 22.594Z" fill="#51CCCC"/>
<path d="M25.0246 45.2L25.8872 46.7022L13.8356 53.6983L12.9731 52.1961L25.0246 45.2Z" fill="#E1E6F0"/>
</svg>
